<svg width="347" height="43" viewBox="0 0 347 43" fill="none" xmlns="http://www.w3.org/2000/svg">
<path d="M85.3922 30.9252L85.3428 13.0064H80.5489L75.063 22.5546L69.4289 13.0064H64.6349V30.9252H69.9478V23.0409L73.7039 29.3125H76.2739L80.0299 22.7593L80.0794 30.9252H85.3922Z" fill="#372532"/>
<path d="M97.2314 16.9229V23.5017C97.2314 25.5752 96.2923 26.3175 95.3286 26.3175C94.2413 26.3175 93.5741 25.652 93.5741 23.6553V16.9229H87.9894V24.6536C87.9894 29.2101 90.4358 31.1812 93.673 31.1812C95.1309 31.1812 96.49 30.6692 97.5032 29.5941V30.9252H102.816V16.9229H97.2314Z" fill="#372532"/>
<path d="M114.683 16.6669C113.225 16.6669 111.916 17.1277 110.878 18.0493V11.9313H105.293V30.9252H110.878V24.3464C110.878 22.273 111.842 21.5306 112.978 21.5306C113.991 21.5306 114.634 22.1962 114.634 23.9369V30.9252H120.219V22.9385C120.219 18.5356 117.797 16.6669 114.683 16.6669Z" fill="#372532"/>
<path d="M128.698 16.6669C126.598 16.6669 124.201 17.2301 122.619 18.254L124.398 22.0682C125.288 21.377 126.647 20.9675 127.858 20.9675C129.44 20.9675 130.23 21.5306 130.403 22.6058H128.155C123.954 22.6058 121.977 24.1161 121.977 26.8295C121.977 29.2357 123.682 31.1812 126.993 31.1812C128.896 31.1812 130.181 30.49 130.823 29.0821V30.9252H136.013V23.3993C136.013 18.7404 133.344 16.6669 128.698 16.6669ZM128.673 27.6998C127.833 27.6998 127.339 27.2134 127.339 26.5735C127.339 25.8055 127.858 25.396 129.044 25.396H130.428V26.3687C130.131 27.2902 129.44 27.6998 128.673 27.6998Z" fill="#372532"/>
<path d="M156.317 16.6669C154.464 16.6669 152.882 17.4349 151.795 18.7916C150.856 17.3325 149.324 16.6669 147.569 16.6669C146.087 16.6669 144.752 17.1789 143.739 18.2284V16.9229H138.426V30.9252H144.011V24.0905C144.011 22.2218 144.777 21.5306 145.765 21.5306C146.704 21.5306 147.273 22.1962 147.273 23.9369V30.9252H152.858V24.0905C152.858 22.2218 153.624 21.5306 154.612 21.5306C155.502 21.5306 156.119 22.1962 156.119 23.9369V30.9252H161.704V22.9385C161.704 18.5356 159.381 16.6669 156.317 16.6669Z" fill="#372532"/>
<path d="M182.018 16.6669C180.164 16.6669 178.583 17.4349 177.495 18.7916C176.556 17.3325 175.024 16.6669 173.27 16.6669C171.787 16.6669 170.453 17.1789 169.44 18.2284V16.9229H164.127V30.9252H169.711V24.0905C169.711 22.2218 170.477 21.5306 171.466 21.5306C172.405 21.5306 172.973 22.1962 172.973 23.9369V30.9252H178.558V24.0905C178.558 22.2218 179.324 21.5306 180.312 21.5306C181.202 21.5306 181.82 22.1962 181.82 23.9369V30.9252H187.405V22.9385C187.405 18.5356 185.082 16.6669 182.018 16.6669Z" fill="#372532"/>
<path d="M195.881 16.6669C193.781 16.6669 191.384 17.2301 189.802 18.254L191.582 22.0682C192.471 21.377 193.83 20.9675 195.041 20.9675C196.623 20.9675 197.413 21.5306 197.586 22.6058H195.338C191.137 22.6058 189.16 24.1161 189.16 26.8295C189.16 29.2357 190.865 31.1812 194.176 31.1812C196.079 31.1812 197.364 30.49 198.007 29.0821V30.9252H203.196V23.3993C203.196 18.7404 200.527 16.6669 195.881 16.6669ZM195.857 27.6998C195.017 27.6998 194.522 27.2134 194.522 26.5735C194.522 25.8055 195.041 25.396 196.227 25.396H197.611V26.3687C197.315 27.2902 196.623 27.6998 195.857 27.6998Z" fill="#372532"/>
<path d="M215.216 11.9313V17.8701C214.401 17.0509 213.264 16.6669 211.781 16.6669C208.248 16.6669 205.258 19.406 205.258 23.9113C205.258 28.4166 208.248 31.1812 211.781 31.1812C213.462 31.1812 214.673 30.7204 215.488 29.7733V30.9252H220.801V11.9313H215.216ZM213.116 26.6759C211.88 26.6759 210.917 25.7287 210.917 23.9113C210.917 22.0938 211.88 21.1722 213.116 21.1722C214.351 21.1722 215.315 22.0938 215.315 23.9113C215.315 25.7287 214.351 26.6759 213.116 26.6759Z" fill="#372532"/>
<path d="M243.804 30.9252H249.834L242.272 13.0064L239.293 10.1266L236.539 13.0064L228.977 30.9252H234.908L236.069 27.8022L239.293 26.1255L242.643 27.8022L243.804 30.9252ZM236.069 23.4505L239.293 14.9262L242.996 23.4505H236.069Z" fill="#372532"/>
<path d="M259.836 11.9313V17.8701C259.021 17.0509 257.884 16.6669 256.401 16.6669C252.868 16.6669 249.878 19.406 249.878 23.9113C249.878 28.4166 252.868 31.1812 256.401 31.1812C258.082 31.1812 259.292 30.7204 260.108 29.7733V30.9252H265.421V11.9313H259.836ZM257.736 26.6759C256.5 26.6759 253.193 25.7287 253.193 23.9113C253.193 22.0938 256.5 21.1722 257.736 21.1722C258.971 21.1722 259.935 22.0938 259.935 23.9113C259.935 25.7287 258.971 26.6759 257.736 26.6759Z" fill="#372532"/>
<path d="M270.686 16.5261C272.737 16.5261 274.047 14.5167 274.047 12.7504C274.047 11.0865 272.737 9.909 270.686 9.909C268.635 9.909 267.326 11.1889 267.326 12.8528C267.326 14.5167 268.635 16.5261 270.686 16.5261ZM267.894 30.9252H273.479V16.9229L270.686 17.8013L267.894 16.9229V30.9252Z" fill="#372532"/>
<path d="M275.954 30.9252H281.539V11.9313H275.954V30.9252Z" fill="#372532"/>
<path d="M301.949 30.9252H308.177L304.544 25.396C306.62 24.2952 307.806 22.3498 307.806 19.7643C307.806 15.6174 304.742 13.0064 299.923 13.0064H291.595V30.9252H297.427V26.4199H299.009L301.949 30.9252ZM301.925 19.7643C301.925 21.0699 301.159 21.8634 299.552 21.8634H297.427V17.6653H299.552C301.159 17.6653 301.925 18.4588 301.925 19.7643Z" fill="#372532"/>
<path d="M312.627 16.425C314.678 16.425 315.988 14.5167 315.988 12.7504C315.988 11.0865 314.678 9.909 312.627 9.909C310.576 9.909 309.267 11.1889 309.267 12.8528C309.267 14.5167 310.576 16.425 312.627 16.425ZM309.835 30.9252H315.42V16.9229H309.835V30.9252Z" fill="#372532"/>
<path d="M323.949 16.6669C321.849 16.6669 319.452 17.2301 317.87 18.254L319.65 22.0682C320.539 21.377 321.898 20.9675 323.109 20.9675C324.691 20.9675 325.481 21.5306 325.654 22.6058H323.406C319.205 22.6058 317.228 24.1161 317.228 26.8295C317.228 29.2357 318.933 31.1812 322.244 31.1812C324.147 31.1812 325.432 30.49 326.075 29.0821V30.9252H331.264V23.3993C331.264 18.7404 328.595 16.6669 323.949 16.6669ZM323.925 27.6998C323.084 27.6998 322.59 27.2134 322.59 26.5735C322.59 25.8055 323.109 25.396 324.295 25.396H325.679V26.3687C325.383 27.2902 324.691 27.6998 323.925 27.6998Z" fill="#372532"/>
<path d="M340.226 26.7015L345.811 20.2507V16.9229H333.381V21.1467H338.768L333.183 27.5974V30.9252H346.082V26.7015H340.226Z" fill="#372532"/>
<path d="M18.4286 30.5337C18.3768 30.407 18.3247 30.2722 18.2874 30.1368C18.187 29.8025 18.13 29.4419 18.1168 29.063C17.945 26.8671 18.877 23.9315 19.4506 21.4169C19.6989 20.3472 19.8767 19.3536 19.8768 18.53C19.8741 18.4817 19.8715 18.4334 19.8693 18.3931C19.8684 18.377 19.8671 18.3528 19.8662 18.3367C19.864 18.2965 19.854 18.2485 19.8518 18.2083C19.85 18.176 19.8404 18.1361 19.8386 18.1039C19.7948 17.8477 19.7294 17.6086 19.6426 17.3867C19.2185 16.3252 18.3149 15.521 17.1489 15.1171C35.8228 16.6485 11.2897 35.2383 27.3674 31.8381C27.6937 31.7901 28.0114 31.7182 28.3276 31.6222C25.5348 34.7122 20.0448 34.5412 18.4286 30.5337Z" fill="url(#paint0_linear_8_38)"/>
<path d="M25.1792 29.4085C25.1275 29.2818 25.0753 29.1471 25.038 29.0116C24.9376 28.6774 24.8806 28.3168 24.8674 27.9379C24.6956 25.7419 25.6276 22.8064 26.2012 20.2918C26.4495 19.2221 26.6273 18.2285 26.6274 17.4049C26.6247 17.3566 26.6221 17.3083 26.6199 17.268C26.619 17.2519 26.6177 17.2277 26.6168 17.2116C26.6147 17.1714 26.6046 17.1234 26.6024 17.0831C26.6006 17.0509 26.591 17.011 26.5892 16.9788C26.5454 16.7225 26.48 16.4835 26.3932 16.2616C25.9691 15.2001 25.0655 14.3959 23.8995 13.992C42.5734 15.5234 18.0403 34.1132 34.118 30.713C34.4444 30.665 34.762 30.5931 35.0783 30.4971C32.2854 33.5871 26.7954 33.4161 25.1792 29.4085Z" fill="url(#paint1_linear_8_38)"/>
<path d="M31.93 28.2834C31.8783 28.1567 31.8261 28.022 31.7888 27.8865C31.6884 27.5522 31.6314 27.1917 31.6182 26.8128C31.4464 24.6168 32.3784 21.6813 32.952 19.1667C33.2003 18.097 33.3781 17.1033 33.3782 16.2798C33.3755 16.2315 33.3729 16.1831 33.3707 16.1429C33.3698 16.1268 33.3685 16.1026 33.3676 16.0865C33.3655 16.0462 33.3554 15.9983 33.3532 15.958C33.3514 15.9258 33.3418 15.8859 33.34 15.8537C33.2962 15.5974 33.2308 15.3583 33.144 15.1365C32.7199 14.075 31.8163 13.2708 30.6503 12.8668C49.3242 14.3983 24.7911 32.9881 40.8688 29.5879C41.1952 29.5399 41.5128 29.468 41.829 29.372C39.0362 32.462 33.5462 32.291 31.93 28.2834Z" fill="url(#paint2_linear_8_38)"/>
<path d="M27.7223 41.6935C14.1733 42.0376 2.83606 35.2626 2.41699 26.569C2.2537 23.2981 3.64419 20.1973 6.15513 17.5747C9.00897 14.6862 20.8912 6.3334 23.3348 6.95915C-10.1983 35.0624 41.108 51.2437 53.3048 21.7427C53.5224 24.3923 51.8741 29.3571 50.1392 31.8287C49.1348 33.3047 47.8044 34.6624 46.1932 35.881C46.1779 35.8815 46.1782 35.8913 46.1782 35.8913C41.7024 39.2708 35.1167 41.503 27.7223 41.6935Z" fill="url(#paint3_linear_8_38)"/>
<path d="M3.23045 22.4241C5.38021 14.9315 17.3544 7.75947 24.9495 5.28159C24.9818 5.27242 25.0303 5.25866 25.0626 5.24949L25.0787 5.24491C35.735 1.70489 45.0656 3.71641 46.2382 8.8702C46.37 9.33743 46.4018 9.82232 46.3689 10.3256C46.3515 10.4916 46.3341 10.6575 46.3006 10.8281C46.3037 10.838 46.2938 10.8622 46.297 10.8721C45.8611 13.4761 42.3833 21.0201 40.8198 23.9549C45.6832 6.50816 12.2168 5.8401 3.23045 22.4241Z" fill="url(#paint4_linear_8_38)"/>
<defs>
<linearGradient id="paint0_linear_8_38" x1="29.8199" y1="33.117" x2="8.75039" y2="17.2985" gradientUnits="userSpaceOnUse">
<stop stop-color="#940000"/>
<stop offset="0.0943982" stop-color="#A80706"/>
<stop offset="0.2945" stop-color="#CE1312"/>
<stop offset="0.4555" stop-color="#E51A19"/>
<stop offset="0.5562" stop-color="#EE1D1C"/>
<stop offset="1" stop-color="#F8261B"/>
</linearGradient>
<linearGradient id="paint1_linear_8_38" x1="36.5705" y1="31.9919" x2="15.501" y2="16.1734" gradientUnits="userSpaceOnUse">
<stop stop-color="#940000"/>
<stop offset="0.0943982" stop-color="#A80706"/>
<stop offset="0.2945" stop-color="#CE1312"/>
<stop offset="0.4555" stop-color="#E51A19"/>
<stop offset="0.5562" stop-color="#EE1D1C"/>
<stop offset="1" stop-color="#F8261B"/>
</linearGradient>
<linearGradient id="paint2_linear_8_38" x1="43.3213" y1="30.8668" x2="22.2518" y2="15.0482" gradientUnits="userSpaceOnUse">
<stop stop-color="#940000"/>
<stop offset="0.0943982" stop-color="#A80706"/>
<stop offset="0.2945" stop-color="#CE1312"/>
<stop offset="0.4555" stop-color="#E51A19"/>
<stop offset="0.5562" stop-color="#EE1D1C"/>
<stop offset="1" stop-color="#F8261B"/>
</linearGradient>
<linearGradient id="paint3_linear_8_38" x1="70.9794" y1="32.1038" x2="-20.3584" y2="35.3798" gradientUnits="userSpaceOnUse">
<stop offset="0.123" stop-color="#43D9B4"/>
<stop offset="0.3384" stop-color="#1FB8CC"/>
<stop offset="0.5045" stop-color="#019CE0"/>
<stop offset="0.5979" stop-color="#3477EA"/>
<stop offset="0.7192" stop-color="#714CF5"/>
<stop offset="0.8084" stop-color="#9731FC"/>
<stop offset="0.8553" stop-color="#A527FF"/>
<stop offset="0.9262" stop-color="#AE34FD"/>
<stop offset="1" stop-color="#B33CFC"/>
</linearGradient>
<linearGradient id="paint4_linear_8_38" x1="50.4042" y1="7.67407" x2="8.29599" y2="21.1422" gradientUnits="userSpaceOnUse">
<stop stop-color="#880000"/>
<stop offset="0.1143" stop-color="#A60908"/>
<stop offset="0.2792" stop-color="#CC1413"/>
<stop offset="0.412" stop-color="#E31B1A"/>
<stop offset="0.495" stop-color="#EC1D1C"/>
<stop offset="1" stop-color="#E9261B"/>
</linearGradient>
</defs>
</svg>
