<?xml version="1.0" standalone="no"?>
<!DOCTYPE svg PUBLIC "-//W3C//DTD SVG 20010904//EN"
 "http://www.w3.org/TR/2001/REC-SVG-20010904/DTD/svg10.dtd">
<svg version="1.0" xmlns="http://www.w3.org/2000/svg"
 width="195.000000pt" height="37.000000pt" viewBox="0 0 195.000000 37.000000"
 preserveAspectRatio="xMidYMid meet">

<g transform="translate(0.000000,37.000000) scale(0.100000,-0.100000)"
fill="#000000" stroke="none">
<path d="M198 259 c-14 -6 -29 -17 -32 -25 -7 -18 -1 -18 30 3 22 14 27 14 35
2 7 -11 9 -9 9 9 0 24 -3 25 -42 11z"/>
<path d="M483 248 c-33 -38 -53 -71 -53 -91 0 -10 5 -15 11 -12 5 4 8 12 6 18
-2 7 8 28 23 47 45 59 54 83 13 38z"/>
<path d="M1181 261 c-7 -5 -12 -12 -12 -17 2 -24 -12 -44 -31 -44 -18 0 -19 2
-7 18 13 16 13 16 -7 0 -11 -10 -28 -18 -38 -18 -10 0 -16 -6 -13 -12 2 -7 -5
-24 -17 -38 -19 -22 -18 -22 10 3 16 15 40 27 52 27 20 0 21 -3 12 -20 -9 -16
-8 -20 5 -20 9 0 13 4 10 10 -3 5 3 17 14 27 11 9 18 20 15 25 -3 4 3 19 12
33 18 28 16 39 -5 26z"/>
<path d="M271 251 c-10 -7 -10 -10 -1 -13 9 -3 5 -17 -15 -46 -15 -23 -26 -45
-23 -47 8 -8 52 44 54 63 1 9 5 25 9 35 8 18 -2 22 -24 8z"/>
<path d="M317 232 c-15 -16 -25 -31 -21 -34 3 -4 1 -15 -4 -25 -16 -29 0 -48
27 -34 26 15 27 21 1 14 -11 -3 -20 -2 -20 1 0 14 29 63 44 75 17 14 21 31 8
31 -5 0 -20 -13 -35 -28z"/>
<path d="M1354 238 l-19 -23 23 19 c21 18 27 26 19 26 -2 0 -12 -10 -23 -22z"/>
<path d="M1463 253 c-7 -2 -13 -11 -13 -19 0 -11 4 -12 19 -4 25 13 101 13
101 0 0 -11 -42 -30 -67 -30 -13 0 -14 2 -2 18 13 15 12 16 -3 3 -26 -20 -22
-31 11 -31 37 0 77 31 68 53 -5 13 -18 17 -54 16 -26 0 -54 -3 -60 -6z"/>
<path d="M974 227 c-12 -12 -32 -29 -45 -38 -15 -11 -20 -21 -16 -33 6 -15 10
-16 22 -6 10 9 15 9 15 1 0 -14 27 -15 35 -1 3 6 -1 7 -9 4 -21 -8 -20 4 5 50
24 45 22 53 -7 23z m-30 -58 c-12 -13 -20 -16 -22 -9 -3 7 2 16 9 21 25 16 32
9 13 -12z"/>
<path d="M1258 231 c-7 -10 -23 -21 -36 -25 -12 -4 -26 -15 -31 -25 -11 -20 2
-50 13 -32 4 6 2 11 -5 11 -8 0 -8 4 1 15 7 8 21 15 31 15 10 0 25 13 34 30
17 33 13 40 -7 11z"/>
<path d="M202 187 c-11 -17 -19 -34 -16 -39 4 -5 7 -8 8 -6 1 2 14 19 28 39
16 21 21 36 14 36 -7 0 -22 -14 -34 -30z"/>
<path d="M365 190 c-21 -23 -13 -59 9 -41 11 9 15 9 19 -1 4 -10 7 -11 18 0
11 10 11 12 0 12 -10 0 -9 6 3 25 21 32 14 32 -19 -1 -30 -30 -48 -25 -20 6
10 11 16 20 13 20 -3 0 -13 -9 -23 -20z"/>
<path d="M526 188 c-19 -17 -23 -27 -17 -37 8 -12 12 -12 25 -2 11 9 16 10 16
2 0 -6 3 -11 8 -11 4 0 8 16 9 35 3 41 -6 44 -41 13z m16 -20 c-14 -15 -22
-18 -22 -9 0 15 32 43 39 35 3 -3 -5 -14 -17 -26z"/>
<path d="M750 185 c-26 -28 -41 -26 -19 2 13 16 12 17 -3 4 -10 -7 -18 -23
-18 -34 0 -20 0 -20 24 2 15 14 26 19 31 12 3 -6 1 -11 -4 -11 -6 0 -11 -5
-11 -12 0 -23 23 10 26 37 3 31 3 31 -26 0z"/>
<path d="M834 178 l-29 -32 34 27 c41 34 57 25 18 -9 -15 -13 -24 -24 -20 -24
5 0 14 5 21 12 9 9 12 9 12 0 0 -29 15 -8 17 23 2 44 -14 45 -53 3z"/>
<path d="M1285 190 c-9 -10 -15 -26 -12 -35 7 -17 23 -20 32 -5 4 6 3 10 -2 9
-22 -4 -24 3 -8 21 10 11 16 22 13 25 -3 3 -13 -4 -23 -15z"/>
<path d="M1326 194 c-18 -47 7 -73 35 -36 11 14 11 15 -1 5 -23 -21 -32 -15
-25 17 7 32 1 41 -9 14z"/>
<path d="M1632 194 c-23 -16 -29 -39 -13 -48 5 -3 8 1 7 10 0 9 10 23 24 32
13 10 21 11 17 5 -14 -23 -16 -53 -4 -53 7 0 13 16 14 35 2 39 -10 44 -45 19z"/>
<path d="M1715 199 c-3 -3 4 -9 15 -12 12 -3 20 0 20 7 0 13 -28 18 -35 5z"/>
<path d="M475 190 c-3 -5 -2 -10 4 -10 5 0 13 5 16 10 3 6 2 10 -4 10 -5 0
-13 -4 -16 -10z"/>
<path d="M600 179 c-16 -29 -4 -36 21 -13 22 19 22 19 14 -6 -6 -20 -5 -23 6
-13 14 14 23 53 12 53 -3 0 -15 -8 -26 -17 -19 -17 -20 -17 -14 0 9 24 0 21
-13 -4z"/>
<path d="M680 190 c-17 -10 -21 -50 -5 -50 21 0 25 13 7 27 -9 8 -12 12 -5 9
6 -4 15 -1 18 5 10 15 2 20 -15 9z"/>
<path d="M793 188 c-12 -21 -14 -48 -2 -48 6 0 9 8 7 18 -2 9 3 22 12 29 9 8
11 12 3 13 -6 0 -15 -6 -20 -12z"/>
<path d="M1572 183 c-10 -20 -5 -43 9 -43 4 0 6 7 3 15 -4 8 -1 22 6 30 8 10
9 15 2 15 -6 0 -15 -8 -20 -17z"/>
<path d="M1450 176 c0 -8 -2 -23 -5 -33 -4 -11 -1 -10 6 4 l12 22 38 -19 c44
-23 49 -24 49 -10 0 10 -71 50 -90 50 -5 0 -10 -6 -10 -14z"/>
<path d="M1230 160 c0 -11 4 -20 9 -20 5 0 7 9 4 20 -3 11 -7 20 -9 20 -2 0
-4 -9 -4 -20z"/>
<path d="M466 155 c-3 -8 -1 -15 4 -15 13 0 22 18 11 24 -5 3 -11 -1 -15 -9z"/>
<path d="M1711 164 c0 -5 4 -18 8 -28 6 -17 8 -17 14 -3 3 8 -1 21 -9 27 -8 7
-14 9 -13 4z"/>
<path d="M1692 118 c-15 -15 -15 -28 0 -28 6 0 8 3 5 7 -4 3 -2 12 4 20 14 16
7 17 -9 1z"/>
</g>
</svg>
